HIERARCHY
ROOT pelvis
{
	OFFSET 0.003123 -0.351407 0.012037
	CHANNELS 6 Xposition Yposition Zposition Zrotation Yrotation Xrotation 
	JOINT left_hip
	{
		OFFSET 0.058189 -0.092763 -0.026001
		CHANNELS 3 Zrotation Yrotation Xrotation
		JOINT left_knee
		{
			OFFSET 0.054695 -0.378753 -0.009396
			CHANNELS 3 Zrotation Yrotation Xrotation
			JOINT left_ankle
			{
				OFFSET -0.043453 -0.403059 -0.031876
				CHANNELS 3 Zrotation Yrotation Xrotation
				JOINT left_foot
				{
					OFFSET 0.047257 -0.057997 0.118216
					CHANNELS 3 Zrotation Yrotation Xrotation
					End Site
					{
						OFFSET 0.000000 0.000000 0.000000
					}
				}
			}
		}
	}
	JOINT right_hip
	{
		OFFSET -0.063267 -0.103908 -0.021250
		CHANNELS 3 Zrotation Yrotation Xrotation
		JOINT right_knee
		{
			OFFSET -0.044210 -0.362380 -0.016824
			CHANNELS 3 Zrotation Yrotation Xrotation
			JOINT right_ankle
			{
				OFFSET 0.015417 -0.410728 -0.020192
				CHANNELS 3 Zrotation Yrotation Xrotation
				JOINT right_foot
				{
					OFFSET -0.038812 -0.058328 0.119049
					CHANNELS 3 Zrotation Yrotation Xrotation
					End Site
					{
						OFFSET 0.000000 0.000000 0.000000
					}
				}
			}
		}
	}
	JOINT spine_1
	{
		OFFSET -0.002763 0.109891 -0.027618
		CHANNELS 3 Zrotation Yrotation Xrotation
		JOINT spine_2
		{
			OFFSET 0.009448 0.131853 -0.005940
			CHANNELS 3 Zrotation Yrotation Xrotation
			JOINT spine_3
			{
				OFFSET -0.011330 0.052235 0.028447
				CHANNELS 3 Zrotation Yrotation Xrotation
				JOINT neck
				{
					OFFSET -0.012164 0.165167 -0.031615
					CHANNELS 3 Zrotation Yrotation Xrotation
					JOINT head
					{
						OFFSET 0.024783 0.160452 0.020737
						CHANNELS 3 Zrotation Yrotation Xrotation
						End Site
						{
							OFFSET 0.000000 0.000000 0.000000
						}
					}
				}
				JOINT left_collar
				{
					OFFSET 0.046364 0.084944 -0.007220
					CHANNELS 3 Zrotation Yrotation Xrotation
					JOINT left_shoulder
					{
						OFFSET 0.119239 0.057728 -0.015461
						CHANNELS 3 Zrotation Yrotation Xrotation
						JOINT left_elbow
						{
							OFFSET 0.254123 -0.072151 -0.042459
							CHANNELS 3 Zrotation Yrotation Xrotation
							JOINT left_wrist
							{
								OFFSET 0.251987 0.023221 -0.002472
								CHANNELS 3 Zrotation Yrotation Xrotation
								JOINT left_index_1
								{
									OFFSET 0.101902 -0.008688 0.019351
									CHANNELS 3 Zrotation Yrotation Xrotation
									JOINT left_index_2
									{
										OFFSET 0.030149 -0.011154 0.001151
										CHANNELS 3 Zrotation Yrotation Xrotation
										JOINT left_index_3
										{
											OFFSET 0.006504 -0.021577 -0.002433
											CHANNELS 3 Zrotation Yrotation Xrotation
											End Site
											{
												OFFSET 0.000000 0.000000 0.000000
											}
										}
									}
								}
								JOINT left_middle_1
								{
									OFFSET 0.109398 -0.006328 -0.003981
									CHANNELS 3 Zrotation Yrotation Xrotation
									JOINT left_middle_2
									{
										OFFSET 0.026472 -0.015218 -0.004641
										CHANNELS 3 Zrotation Yrotation Xrotation
										JOINT left_middle_3
										{
											OFFSET 0.005022 -0.023347 -0.001911
											CHANNELS 3 Zrotation Yrotation Xrotation
											End Site
											{
												OFFSET 0.000000 0.000000 0.000000
											}
										}
									}
								}
								JOINT left_pinky_1
								{
									OFFSET 0.084047 -0.014539 -0.043750
									CHANNELS 3 Zrotation Yrotation Xrotation
									JOINT left_pinky_2
									{
										OFFSET 0.012124 -0.014448 -0.005375
										CHANNELS 3 Zrotation Yrotation Xrotation
										JOINT left_pinky_3
										{
											OFFSET 0.003798 -0.018853 0.000167
											CHANNELS 3 Zrotation Yrotation Xrotation
											End Site
											{
												OFFSET 0.000000 0.000000 0.000000
											}
										}
									}
								}
								JOINT left_ring_1
								{
									OFFSET 0.097444 -0.009268 -0.027345
									CHANNELS 3 Zrotation Yrotation Xrotation
									JOINT left_ring_2
									{
										OFFSET 0.023561 -0.016057 -0.001895
										CHANNELS 3 Zrotation Yrotation Xrotation
										JOINT left_ring_3
										{
											OFFSET 0.004257 -0.023548 0.000814
											CHANNELS 3 Zrotation Yrotation Xrotation
											End Site
											{
												OFFSET 0.000000 0.000000 0.000000
											}
										}
									}
								}
								JOINT left_thumb_1
								{
									OFFSET 0.040636 -0.017977 0.025611
									CHANNELS 3 Zrotation Yrotation Xrotation
									JOINT left_thumb_2
									{
										OFFSET 0.021637 -0.017639 0.011623
										CHANNELS 3 Zrotation Yrotation Xrotation
										JOINT left_thumb_3
										{
											OFFSET 0.024002 -0.008356 0.006548
											CHANNELS 3 Zrotation Yrotation Xrotation
											End Site
											{
												OFFSET 0.000000 0.000000 0.000000
											}
										}
									}
								}
							}
						}
					}
				}
				JOINT right_collar
				{
					OFFSET -0.047695 0.084339 -0.013400
					CHANNELS 3 Zrotation Yrotation Xrotation
					JOINT right_shoulder
					{
						OFFSET -0.102578 0.053524 -0.012669
						CHANNELS 3 Zrotation Yrotation Xrotation
						JOINT right_elbow
						{
							OFFSET -0.271150 -0.036492 -0.026467
							CHANNELS 3 Zrotation Yrotation Xrotation
							JOINT right_wrist
							{
								OFFSET -0.249267 -0.004533 -0.015325
								CHANNELS 3 Zrotation Yrotation Xrotation
								JOINT right_index_1
								{
									OFFSET -0.099881 -0.011783 0.019600
									CHANNELS 3 Zrotation Yrotation Xrotation
									JOINT right_index_2
									{
										OFFSET -0.030148 -0.011154 0.001151
										CHANNELS 3 Zrotation Yrotation Xrotation
										JOINT right_index_3
										{
											OFFSET -0.006505 -0.021577 -0.002432
											CHANNELS 3 Zrotation Yrotation Xrotation
											End Site
											{
												OFFSET 0.000000 0.000000 0.000000
											}
										}
									}
								}
								JOINT right_middle_1
								{
									OFFSET -0.107376 -0.009422 -0.003734
									CHANNELS 3 Zrotation Yrotation Xrotation
									JOINT right_middle_2
									{
										OFFSET -0.026472 -0.015218 -0.004641
										CHANNELS 3 Zrotation Yrotation Xrotation
										JOINT right_middle_3
										{
											OFFSET -0.005022 -0.023347 -0.001911
											CHANNELS 3 Zrotation Yrotation Xrotation
											End Site
											{
												OFFSET 0.000000 0.000000 0.000000
											}
										}
									}
								}
								JOINT right_pinky_1
								{
									OFFSET -0.082027 -0.017634 -0.043503
									CHANNELS 3 Zrotation Yrotation Xrotation
									JOINT right_pinky_2
									{
										OFFSET -0.012123 -0.014448 -0.005374
										CHANNELS 3 Zrotation Yrotation Xrotation
										JOINT right_pinky_3
										{
											OFFSET -0.003798 -0.018852 0.000167
											CHANNELS 3 Zrotation Yrotation Xrotation
											End Site
											{
												OFFSET 0.000000 0.000000 0.000000
											}
										}
									}
								}
								JOINT right_ring_1
								{
									OFFSET -0.095423 -0.012362 -0.027099
									CHANNELS 3 Zrotation Yrotation Xrotation
									JOINT right_ring_2
									{
										OFFSET -0.023561 -0.016057 -0.001895
										CHANNELS 3 Zrotation Yrotation Xrotation
										JOINT right_ring_3
										{
											OFFSET -0.004257 -0.023548 0.000816
											CHANNELS 3 Zrotation Yrotation Xrotation
											End Site
											{
												OFFSET 0.000000 0.000000 0.000000
											}
										}
									}
								}
								JOINT right_thumb_1
								{
									OFFSET -0.038613 -0.021074 0.025861
									CHANNELS 3 Zrotation Yrotation Xrotation
									JOINT right_thumb_2
									{
										OFFSET -0.021636 -0.017639 0.011623
										CHANNELS 3 Zrotation Yrotation Xrotation
										JOINT right_thumb_3
										{
											OFFSET -0.024004 -0.008353 0.006547
											CHANNELS 3 Zrotation Yrotation Xrotation
											End Site
											{
												OFFSET 0.000000 0.000000 0.000000
											}
										}
									}
								}
							}
						}
					}
				}
			}
		}
	}
}
MOTION
Frames: 4
Frame Time: 0.050000
0.004090 0.942390 0.001907 1.682742 -2.457740 -2.188244 4.477092 0.242174 2.890797 -5.545158 0.099984 6.593649 4.594644 11.384676 4.278379 0.000000 0.000000 0.000000 -4.968532 -0.081067 4.282582 1.145937 0.001686 1.945434 1.924910 2.319208 2.136148 0.000000 0.000000 0.000000 -2.720123 -0.595577 9.662995 -8.511844 -0.983868 -19.012226 11.269315 2.122737 23.067000 1.064926 2.153730 -14.883620 0.000000 0.000000 0.000000 -9.769480 -0.477202 -0.862371 -56.958489 -4.851872 -9.137122 -19.398050 -32.693720 9.136160 -3.859183 4.104341 23.176777 -21.304178 5.213014 0.389294 -7.818199 9.202754 13.630001 0.000000 0.000000 0.000000 -15.384128 0.152870 -3.382385 -28.069897 5.821490 -0.948573 0.000000 0.000000 0.000000 11.372847 -15.390315 -7.431801 -60.648434 -17.140924 -29.815576 0.000000 0.000000 0.000000 -11.968336 -1.324760 -2.209680 -48.928624 -2.386422 -13.501461 0.000000 0.000000 0.000000 7.484242 30.480793 30.700784 -0.738660 -18.035503 -5.577974 0.000000 0.000000 0.000000 9.340131 -2.614819 -2.583691 57.901068 3.138021 -5.713350 13.595243 30.908713 2.677058 5.621266 0.629274 25.346238 22.088999 -2.693654 -0.279843 9.648785 -11.541650 15.443347 0.000000 0.000000 0.000000 16.671732 1.140298 -4.120174 33.845983 -5.516217 -4.868813 0.000000 0.000000 0.000000 -4.137919 12.529082 -6.460312 61.102644 13.755125 -27.356134 0.000000 0.000000 0.000000 14.447715 1.600553 -2.634816 49.345593 -0.724670 -9.164631 0.000000 0.000000 0.000000 -5.355465 -31.425407 31.402705 -2.134899 18.457640 -7.177047 0.000000 0.000000 0.000000 
0.004031 0.942390 0.001907 1.681956 -2.960902 -2.156996 4.447159 0.264848 3.036636 -5.611170 0.133886 6.362834 4.764108 11.752728 4.437350 0.000000 0.000000 0.000000 -4.987879 -0.054510 4.061877 1.088728 0.011077 2.112321 2.102158 2.696016 2.077331 0.000000 0.000000 0.000000 -2.738850 -0.592887 9.559413 -8.666280 -0.938169 -18.954044 11.453984 2.358779 23.191157 1.067916 2.134281 -14.767520 0.000000 0.000000 0.000000 -9.774744 -0.176017 -1.030381 -56.963658 -5.529853 -8.981737 -19.165420 -31.938844 8.841057 -4.211622 3.878192 23.809785 -21.743326 5.063047 0.255085 -9.224224 9.671877 13.246826 0.000000 0.000000 0.000000 -17.247904 1.616129 -3.322951 -27.904396 6.254444 -0.089248 0.000000 0.000000 0.000000 7.120675 -12.822393 -5.890866 -62.358467 -14.918827 -27.719602 0.000000 0.000000 0.000000 -14.716452 0.252945 -2.063099 -48.679625 -1.450799 -12.135579 0.000000 0.000000 0.000000 5.920591 31.342642 31.379713 1.670590 -17.546906 -6.596262 0.000000 0.000000 0.000000 9.335688 -2.517688 -2.532522 57.866835 3.912031 -5.440008 13.132087 30.417522 2.509350 6.357421 0.234231 26.543556 22.207052 -3.178728 -0.257841 14.295833 -12.126276 12.790797 0.000000 0.000000 0.000000 18.032543 0.710596 -4.337536 32.496729 -5.411804 -4.979106 0.000000 0.000000 0.000000 -2.296509 17.135886 -9.985110 58.171587 7.699149 -21.734583 0.000000 0.000000 0.000000 17.981527 1.688885 -3.287353 45.074107 0.806478 -13.392060 0.000000 0.000000 0.000000 -3.754819 -31.665666 31.307814 -4.314220 17.638086 -8.037463 0.000000 0.000000 0.000000 
0.004031 0.942390 0.001907 1.620442 -2.923286 -2.151909 4.527905 0.259379 3.020716 -5.624582 0.134013 6.381519 4.755333 11.726197 4.413693 0.000000 0.000000 0.000000 -4.939380 -0.060063 4.070365 1.131766 0.008151 2.104921 2.099594 2.670914 2.105753 0.000000 0.000000 0.000000 -2.672450 -0.595511 9.559025 -8.673490 -0.934954 -18.957345 11.400405 2.344550 23.190033 1.068215 2.133959 -14.764617 0.000000 0.000000 0.000000 -9.741255 -0.196182 -1.015467 -56.988574 -5.534866 -8.984111 -19.106807 -31.959692 8.828896 -4.284967 3.759119 23.935514 -21.725004 5.366981 0.320260 -9.273173 9.666244 13.174761 0.000000 0.000000 0.000000 -16.389861 0.535965 -3.513995 -28.506452 4.606095 -3.819260 0.000000 0.000000 0.000000 6.540746 -12.359927 -5.648468 -61.389283 -14.179258 -27.687328 0.000000 0.000000 0.000000 -14.968283 0.628489 -1.973556 -47.758255 -1.466494 -12.427326 0.000000 0.000000 0.000000 5.942454 31.428544 31.468144 1.705142 -17.548655 -6.614425 0.000000 0.000000 0.000000 9.293849 -2.552955 -2.547679 57.806970 3.914013 -5.432434 13.385932 30.453041 2.569916 6.354864 0.240455 26.891831 22.069846 -3.526747 -0.179735 13.318011 -9.996454 10.173498 0.000000 0.000000 0.000000 15.455045 2.970745 -4.655652 35.089920 -7.736647 -2.362462 0.000000 0.000000 0.000000 -3.039464 15.652453 -8.529435 55.771713 11.843003 -28.657375 0.000000 0.000000 0.000000 14.483170 4.069531 -3.583734 47.819835 -0.765183 -10.455213 0.000000 0.000000 0.000000 -3.660124 -31.933111 31.598627 -8.141381 19.613112 -10.870618 0.000000 0.000000 0.000000 
0.003913 0.942390 0.001907 1.637205 -2.935333 -2.151970 4.522070 0.260206 3.024768 -5.635080 0.136160 6.374968 4.753852 11.730783 4.428732 0.000000 0.000000 0.000000 -4.945067 -0.059019 4.066223 1.120553 0.008949 2.107866 2.099213 2.679406 2.092867 0.000000 0.000000 0.000000 -2.744779 -0.592546 9.553579 -8.663381 -0.938333 -18.954709 11.416438 2.287618 23.559330 0.939478 2.237575 -15.427682 0.000000 0.000000 0.000000 -9.782028 0.143606 -1.216631 -56.950807 -5.806237 -8.934823 -19.342536 -31.970251 8.910976 -4.000691 3.709488 23.987854 -21.975490 5.759921 0.378222 -9.223401 9.741455 13.371879 0.000000 0.000000 0.000000 -16.623192 0.972350 -3.400505 -28.646042 4.727022 -3.589033 0.000000 0.000000 0.000000 4.872554 -12.411954 -6.358281 -61.474602 -13.607473 -26.512667 0.000000 0.000000 0.000000 -15.157390 1.146330 -1.819908 -48.315104 -1.340484 -12.086496 0.000000 0.000000 0.000000 6.108036 31.825310 31.879666 2.945747 -19.362643 -7.919621 0.000000 0.000000 0.000000 9.216244 -2.342566 -2.404334 57.882586 4.086053 -5.400145 13.261815 30.709549 2.577209 5.907970 0.711810 24.788273 21.353204 -3.388546 0.016116 12.325931 -11.196284 13.260405 0.000000 0.000000 0.000000 16.902743 0.869299 -4.037480 31.690823 -5.283322 -4.393261 0.000000 0.000000 0.000000 -3.196208 12.234544 -6.499973 59.942168 12.384676 -26.432683 0.000000 0.000000 0.000000 14.934570 1.445115 -2.624324 47.915743 -1.002325 -8.407283 0.000000 0.000000 0.000000 -4.510123 -31.253242 31.149964 -3.400617 16.917582 -7.193176 0.000000 0.000000 0.000000 
